<svg width="33" height="33" viewBox="0 0 33 33" fill="none" xmlns="http://www.w3.org/2000/svg">
<path d="M31.072 0.312012H1.61286C0.904403 0.312012 0.332031 0.884383 0.332031 1.59284V31.052C0.332031 31.7604 0.904403 32.3328 1.61286 32.3328H31.072C31.7804 32.3328 32.3528 31.7604 32.3528 31.052V1.59284C32.3528 0.884383 31.7804 0.312012 31.072 0.312012ZM27.3736 9.65808H24.8159C22.8106 9.65808 22.4224 10.6107 22.4224 12.0116V15.0976H27.2095L26.5851 19.9287H22.4224V32.3328H17.4311V19.9327H13.2564V15.0976H17.4311V11.5353C17.4311 7.40061 19.9568 5.14715 23.6472 5.14715C25.4163 5.14715 26.9333 5.27923 27.3776 5.33927V9.65808H27.3736Z" fill="#EF2779"/>
</svg>
