<svg width="35" height="28" viewBox="0 0 35 28" fill="none" xmlns="http://www.w3.org/2000/svg">
<path d="M34.0048 4.00756C32.78 4.5359 31.4472 4.91615 30.0743 5.06425C31.4997 4.21744 32.5671 2.87963 33.0762 1.3018C31.7387 2.09748 30.2734 2.65542 28.7454 2.95087C28.1068 2.26814 27.3344 1.72424 26.4764 1.35307C25.6183 0.981896 24.693 0.791409 23.7582 0.793474C19.9757 0.793474 16.9338 3.85946 16.9338 7.6219C16.9338 8.15025 16.9978 8.67859 17.1019 9.18692C11.4382 8.89073 6.38691 6.18497 3.02873 2.04228C2.41683 3.08742 2.09618 4.27744 2.10013 5.48852C2.10013 7.85806 3.30491 9.94741 5.1421 11.1762C4.05942 11.1336 3.00208 10.836 2.0561 10.3076V10.3917C2.0561 13.7099 4.40162 16.4596 7.52765 17.0921C6.9407 17.2445 6.3369 17.3225 5.73048 17.3242C5.28619 17.3242 4.86592 17.2802 4.44165 17.2201C5.30621 19.9259 7.82384 21.8912 10.8218 21.9552C8.47626 23.7924 5.53836 24.8731 2.34829 24.8731C1.77592 24.8731 1.24757 24.8531 0.699219 24.789C3.72518 26.7303 7.31551 27.851 11.182 27.851C23.7342 27.851 30.6026 17.4523 30.6026 8.42643C30.6026 8.13023 30.6026 7.83404 30.5826 7.53785C31.9115 6.56522 33.0762 5.36044 34.0048 4.00756Z" fill="#EF2779"/>
</svg>
