<svg width="33" height="33" viewBox="0 0 33 33" fill="none" xmlns="http://www.w3.org/2000/svg">
<path d="M31.0564 0.312012H1.59724C0.888778 0.312012 0.316406 0.884383 0.316406 1.59284V31.052C0.316406 31.7604 0.888778 32.3328 1.59724 32.3328H31.0564C31.7648 32.3328 32.3372 31.7604 32.3372 31.052V1.59284C32.3372 0.884383 31.7648 0.312012 31.0564 0.312012ZM9.81457 27.5977H5.06349V12.3158H9.81457V27.5977ZM7.44103 10.2264C6.89638 10.2264 6.36397 10.0649 5.91111 9.76235C5.45825 9.45976 5.10529 9.02967 4.89686 8.52649C4.68843 8.0233 4.6339 7.4696 4.74016 6.93542C4.84641 6.40124 5.10868 5.91056 5.49381 5.52544C5.87893 5.14031 6.36961 4.87804 6.90379 4.77178C7.43797 4.66553 7.99167 4.72006 8.49486 4.92849C8.99805 5.13692 9.42813 5.48988 9.73072 5.94274C10.0333 6.39559 10.1948 6.92801 10.1948 7.47266C10.1908 8.99364 8.95801 10.2264 7.44103 10.2264ZM27.6021 27.5977H22.855V20.1649C22.855 18.3917 22.823 16.1143 20.3854 16.1143C17.9158 16.1143 17.5356 18.0435 17.5356 20.0368V27.5977H12.7925V12.3158H17.3475V14.4052H17.4115C18.0439 13.2044 19.5929 11.9356 21.9064 11.9356C26.7175 11.9356 27.6021 15.1016 27.6021 19.2163V27.5977Z" fill="#EF2779"/>
</svg>
