<svg width="27" height="33" viewBox="0 0 27 33" fill="none" xmlns="http://www.w3.org/2000/svg">
<g clip-path="url(#clip0)">
<path d="M13.8607 19.9958C17.3535 19.9958 20.194 17.1553 20.194 13.6624C20.194 10.1696 17.3535 7.3291 13.8607 7.3291C10.3678 7.3291 7.52734 10.1696 7.52734 13.6624C7.52734 17.1553 10.3678 19.9958 13.8607 19.9958ZM13.8607 10.4958C15.6071 10.4958 17.0273 11.916 17.0273 13.6624C17.0273 15.4089 15.6071 16.8291 13.8607 16.8291C12.1143 16.8291 10.694 15.4089 10.694 13.6624C10.694 11.916 12.1143 10.4958 13.8607 10.4958Z" fill="#EF2779"/>
<path d="M12.6078 32.3678C12.8758 32.5591 13.1969 32.662 13.5262 32.662C13.8555 32.662 14.1765 32.5591 14.4445 32.3678C14.9258 32.0274 26.2388 23.8589 26.1928 13.6623C26.1928 6.67819 20.5103 0.995605 13.5262 0.995605C6.5421 0.995605 0.859514 6.67819 0.859514 13.6544C0.813598 23.8589 12.1265 32.0274 12.6078 32.3678ZM13.5262 4.16227C18.7654 4.16227 23.0262 8.42302 23.0262 13.6702C23.0594 20.697 16.0785 27.0066 13.5262 29.076C10.9754 27.005 3.99293 20.6939 4.02618 13.6623C4.02618 8.42302 8.28693 4.16227 13.5262 4.16227Z" fill="#EF2779"/>
</g>
<defs>
<clipPath id="clip0">
<rect width="26" height="32" fill="white" transform="translate(0.859375 0.829102)"/>
</clipPath>
</defs>
</svg>
