<svg width="28" height="23" viewBox="0 0 28 23" fill="none" xmlns="http://www.w3.org/2000/svg">
<g clip-path="url(#clip0)">
<path d="M26.1719 1.5166H1.79688C1.27832 1.5166 0.859375 1.93555 0.859375 2.4541V21.2041C0.859375 21.7227 1.27832 22.1416 1.79688 22.1416H26.1719C26.6904 22.1416 27.1094 21.7227 27.1094 21.2041V2.4541C27.1094 1.93555 26.6904 1.5166 26.1719 1.5166ZM25 4.76269V20.0322H2.96875V4.76269L2.16016 4.13281L3.31152 2.65332L4.56543 3.62891H23.4062L24.6602 2.65332L25.8115 4.13281L25 4.76269ZM23.4062 3.62598L13.9844 10.9502L4.5625 3.62598L3.30859 2.65039L2.15723 4.12988L2.96582 4.75977L12.9736 12.541C13.2614 12.7646 13.6155 12.886 13.98 12.886C14.3444 12.886 14.6985 12.7646 14.9863 12.541L25 4.76269L25.8086 4.13281L24.6572 2.65332L23.4062 3.62598Z" fill="#EF2779"/>
</g>
<defs>
<clipPath id="clip0">
<rect width="27" height="22" fill="white" transform="translate(0.859375 0.829102)"/>
</clipPath>
</defs>
</svg>
