<svg xmlns="http://www.w3.org/2000/svg" xmlns:xlink="http://www.w3.org/1999/xlink" viewBox="0 0 479.63 90.93"><defs><style>.cls-1{fill:none;}.cls-2{fill:#fff;}.cls-3{fill:#35c3ff;}.cls-4{clip-path:url(#clip-path);}.cls-5{fill:#f05;}.cls-6{fill:#ff0056;}.cls-7{fill:#ff0057;}.cls-8{fill:#ff0158;}.cls-9{fill:#ff0159;}.cls-10{fill:#ff015a;}.cls-11{fill:#ff015b;}.cls-12{fill:#ff025c;}.cls-13{fill:#ff025d;}.cls-14{fill:#ff025e;}.cls-15{fill:#ff025f;}.cls-16{fill:#ff0360;}.cls-17{fill:#ff0361;}.cls-18{fill:#ff0362;}.cls-19{fill:#ff0363;}.cls-20{fill:#ff0464;}.cls-21{fill:#ff0465;}.cls-22{fill:#ff0466;}.cls-23{fill:#ff0467;}.cls-24{fill:#ff0568;}.cls-25{fill:#ff0569;}.cls-26{fill:#ff056a;}.cls-27{fill:#ff056b;}.cls-28{fill:#ff066c;}.cls-29{fill:#ff066d;}.cls-30{fill:#ff066e;}.cls-31{fill:#ff066f;}.cls-32{fill:#ff0770;}.cls-33{fill:#ff0771;}.cls-34{fill:#ff0772;}.cls-35{fill:#ff0773;}.cls-36{fill:#ff0874;}.cls-37{fill:#ff0875;}.cls-38{fill:#ff0876;}.cls-39{fill:#ff0877;}.cls-40{fill:#ff0978;}.cls-41{fill:#ff0979;}.cls-42{fill:#ff097a;}.cls-43{fill:#ff097b;}.cls-44{fill:#ff0a7c;}.cls-45{fill:#ff0a7d;}.cls-46{fill:#ff0a7e;}.cls-47{fill:#ff0a7f;}.cls-48{fill:#ff0b80;}.cls-49{fill:#ff0b81;}.cls-50{fill:#ff0b82;}.cls-51{fill:#ff0b83;}.cls-52{fill:#ff0c84;}.cls-53{fill:#ff0c85;}.cls-54{fill:#ff0c86;}.cls-55{fill:#ff0c87;}.cls-56{fill:#ff0d88;}.cls-57{fill:#ff0d89;}.cls-58{fill:#ff0d8a;}.cls-59{fill:#ff0d8b;}.cls-60{fill:#ff0e8c;}.cls-61{fill:#ff0e8d;}.cls-62{fill:#ff0e8e;}.cls-63{fill:#ff0e8f;}.cls-64{fill:#ff0f90;}.cls-65{fill:#ff0f91;}.cls-66{fill:#ff0f92;}.cls-67{fill:#ff0f93;}.cls-68{fill:#ff1094;}.cls-69{fill:#ff1095;}.cls-70{fill:#ff1096;}.cls-71{fill:#ff1097;}.cls-72{fill:#ff1198;}.cls-73{fill:#f19;}.cls-74{fill:#ff119a;}.cls-75{fill:#ff119b;}.cls-76{fill:#ff129c;}.cls-77{fill:#ff129d;}.cls-78{fill:#ff129e;}.cls-79{fill:#ff129f;}.cls-80{fill:#ff13a0;}.cls-81{fill:#ff13a1;}.cls-82{fill:#ff13a2;}.cls-83{fill:#ff13a3;}.cls-84{fill:#ff14a4;}.cls-85{fill:#ff14a5;}.cls-86{fill:#ff14a6;}.cls-87{fill:#ff14a7;}.cls-88{fill:#ff15a8;}.cls-89{fill:#ff15a9;}.cls-90{fill:#fe15ab;}.cls-91{fill:#fe15ac;}.cls-92{fill:#fe16ad;}.cls-93{fill:#fe16ae;}.cls-94{fill:#fe16af;}.cls-95{fill:#fe16b0;}.cls-96{fill:#fe17b1;}.cls-97{fill:#fe17b2;}.cls-98{fill:#fe17b3;}.cls-99{fill:#fe17b4;}.cls-100{fill:#fe18b5;}.cls-101{fill:#fe18b6;}.cls-102{fill:#fe18b7;}.cls-103{fill:#fe18b8;}.cls-104{fill:#fe19b9;}.cls-105{fill:#fe19ba;}.cls-106{fill:#fe19bb;}.cls-107{fill:#fe19bc;}.cls-108{fill:#fe1abd;}.cls-109{fill:#fe1abe;}.cls-110{fill:#fe1abf;}.cls-111{fill:#fe1ac0;}.cls-112{fill:#fe1bc1;}.cls-113{fill:#fe1bc2;}.cls-114{fill:#fe1bc3;}.cls-115{fill:#fe1bc4;}.cls-116{fill:#fe1cc5;}.cls-117{fill:#fe1cc6;}.cls-118{fill:#fe1cc7;}.cls-119{fill:#fe1cc8;}.cls-120{fill:#fe1dc9;}.cls-121{fill:#fe1dca;}.cls-122{fill:#fe1dcb;}.cls-123{fill:#fe1dcc;}.cls-124{fill:#fe1ecd;}.cls-125{fill:#fe1ece;}.cls-126{fill:#fe1ecf;}.cls-127{fill:#fe1ed0;}.cls-128{fill:#fe1fd1;}.cls-129{fill:#fe1fd2;}.cls-130{fill:#fe1fd3;}.cls-131{fill:#fe1fd4;}.cls-132{fill:#fe20d5;}.cls-133{fill:#fe20d6;}.cls-134{fill:#fe20d7;}.cls-135{fill:#fe20d8;}.cls-136{fill:#fe21d9;}.cls-137{fill:#fe21da;}.cls-138{fill:#fe21db;}.cls-139{fill:#fe21dc;}.cls-140{fill:#fe22dd;}.cls-141{fill:#fe22de;}.cls-142{fill:#fe22df;}.cls-143{fill:#fe22e0;}.cls-144{fill:#fe23e1;}.cls-145{fill:#fe23e2;}.cls-146{fill:#fe23e3;}.cls-147{fill:#fe23e4;}.cls-148{fill:#fe24e5;}.cls-149{fill:#fe24e6;}.cls-150{fill:#fe24e7;}.cls-151{fill:#fe24e8;}.cls-152{fill:#fe25e9;}.cls-153{fill:#fe25ea;}.cls-154{fill:#fe25eb;}.cls-155{fill:#fe25ec;}.cls-156{fill:#fe26ed;}.cls-157{fill:#fe26ee;}.cls-158{fill:#fe26ef;}.cls-159{fill:#fe26f0;}.cls-160{fill:#fe27f1;}.cls-161{fill:#fe27f2;}.cls-162{fill:#fe27f3;}.cls-163{fill:#fe27f4;}.cls-164{fill:#fe28f5;}.cls-165{fill:#fe28f6;}.cls-166{fill:#fe28f7;}.cls-167{fill:#fe28f8;}.cls-168{fill:#fe29f9;}.cls-169{fill:#fe29fa;}.cls-170{fill:#fe29fb;}.cls-171{fill:#fe29fc;}.cls-172{fill:#fe2afd;}.cls-173{fill:#fe2afe;}.cls-174{fill:#fe2aff;}</style><clipPath id="clip-path" transform="translate(0 0)"><rect class="cls-1" x="0.02" width="84.82" height="25.53" rx="12"/></clipPath></defs><g id="Layer_2" data-name="Layer 2"><g id="Layer_1-2" data-name="Layer 1"><path class="cls-2" d="M0,83.07q.75-7.23,1-11.62.44-6.49.82-17.84t.39-15.28V34.41q10.74.08,20,.08t17.89-.08q-.57,8.21-.57,10.73l-3.1-.1-2.5,0-2.49,0h-7l-7.1.08L17,53.34l5.17.11H28q2.49,0,7.62-.11-.39,6.73-.39,10.55-5.73-.18-8.5-.18c-3.14,0-6.55.06-10.25.18l-.37,12.83,0,4.78v1.57L8.35,83Z" transform="translate(0 0)"/><path class="cls-2" d="M44.81,83.07q2-28.62,2-44.06l0-4.6q6.26.08,8.35.08l7.67-.08q-.65,8-1,15.19-.49,10-.71,18.66t-.22,14.81L53.57,83Q51.43,83,44.81,83.07Z" transform="translate(0 0)"/><path class="cls-2" d="M98.24,54.7c3.25,0,6.35.07,9.3.07,5,0,9,0,11.83-.07q-.45,4.88-.94,13.83T117.84,82c-2.73.49-5,.86-6.79,1.08s-4,.43-6.47.61-4.76.27-6.73.27a57.6,57.6,0,0,1-9.52-.79A31.49,31.49,0,0,1,80,80.68a17.45,17.45,0,0,1-6.15-4.74A21.8,21.8,0,0,1,70,68.85a27.26,27.26,0,0,1-1.33-8.49,26.28,26.28,0,0,1,3.6-13.43,25.63,25.63,0,0,1,10.35-9.82q6.77-3.63,17.45-3.62a89.13,89.13,0,0,1,17.29,1.89q0,5.2.46,11.58c-1.71-.57-3.09-1-4.15-1.3a37.89,37.89,0,0,0-3.71-.82c-1.41-.25-2.76-.43-4-.55s-2.4-.18-3.4-.18a24,24,0,0,0-7.41,1.12,15.73,15.73,0,0,0-6,3.46,14.7,14.7,0,0,0-3.76,5.58,18.91,18.91,0,0,0-1.25,6.84,14.49,14.49,0,0,0,1.43,6.54A9.46,9.46,0,0,0,90.07,72,15.71,15.71,0,0,0,97,73.52a29.28,29.28,0,0,0,7-.93l.41-7.74c-1.55-.07-2.47-.1-2.75-.1l-3.79,0,.25-4.38c0-.48.06-1.16.11-2S98.24,56.24,98.24,54.7Z" transform="translate(0 0)"/><path class="cls-2" d="M125.75,83.07l.89-7.2,2.19-25,1.09-16.47q6.59.08,10.34.08,3.12,0,9.52-.08c.31,2.05.57,3.6.78,4.66s.74,3.12,1.58,6.2,1.52,5.74,2,8,1.27,6.09,2.29,11.53q1.57-5.6,2.86-9.62T162.53,46c1.29-3.42,2.1-5.66,2.45-6.72s.81-2.68,1.41-4.87c3.56.05,7.06.08,10.48.08q3.49,0,9.69-.08-.67,12-.89,20.64-.46,16.9-.46,23.24c0,.88,0,2.47.07,4.78-3.14,0-5.33-.07-6.59-.07q-2.74,0-6.74.07.28-3.21.72-15.27t.44-15.42c0-1,0-2.33-.07-4.06l-4.68,14.5-6.71,20.25Q157,83,155.27,83c-1.48,0-3.73,0-6.77.07l-4.4-19.61L141.53,53c-.1-.4-.2-.9-.32-1.5s-.31-1.64-.57-3.13l-.9,9.87-1.19,20.25-.11,4.56q-4.92-.07-6.27-.07C130.93,83,128.8,83,125.75,83.07Z" transform="translate(0 0)"/><path class="cls-2" d="M187.42,83.07l3-5.13,18.44-34.72,2-3.89q.85-1.71,2.39-4.92,6.27.08,9.16.08,5,0,9.3-.08l5.2,14.87,10.58,28.58,2.07,5.21Q243.3,83,242,83q-3,0-8.81.07-1.56-5.88-4.52-13.83H210.71q-3.11,6.27-6.41,13.83-6.65-.07-8.14-.07Q193.45,83,187.42,83.07ZM215,58.87h11.07Q222,46.3,221.57,45q-2.35,5.23-4,8.58Z" transform="translate(0 0)"/><path class="cls-2" d="M271.11,83.07q.9-8.41,1.29-13.72.75-9.7,1.13-19.27t.38-15.67c3.22.05,6.09.08,8.58.08q2.53,0,7.26-.08l-.85,12.91-1.08,20.17-.14,5q6.13.1,8,.1,9.38,0,14.19-.25l-.78,10.77Q299.69,83,291.22,83,279.73,83,271.11,83.07Z" transform="translate(0 0)"/><path class="cls-2" d="M369,83.07l.71-7.49,1.39-25.38L371.52,40V34.41q5.53.08,9.79.08,3,0,8.53-.08l15.21,27.67,2.1,4.07q.41-6,.82-16.79t.42-15q4.38.08,7,.08l7-.08L421.53,45l-1.6,29.51-.21,8.52q-4.65-.07-8.67-.07-3.36,0-9.28.07Q399.93,79.57,399,78l-6-10.16q-3-5-5.44-9.55c-1.1-1.93-2.22-4-3.39-6.35l-.76,16.9-.37,14.23q-4.41-.07-6.73-.07C375.06,83,372.61,83,369,83.07Z" transform="translate(0 0)"/><path class="cls-2" d="M429,83.07q.79-8.13,1.08-13,.44-7.28.86-18.82.31-8.84.32-12.66V34.41c2.78.08,5.18.11,7.2.11s4.5-.05,7.66-.16,6.13-.16,8.91-.16a54.13,54.13,0,0,1,8.37.57,19.79,19.79,0,0,1,6.72,2.35,16.58,16.58,0,0,1,5.22,4.67,21.48,21.48,0,0,1,3.21,6.76,29.08,29.08,0,0,1,1.1,8,34.63,34.63,0,0,1-.85,7.76A29.08,29.08,0,0,1,476.39,71a22.2,22.2,0,0,1-3.58,5.15,21.47,21.47,0,0,1-4.69,3.69,20.37,20.37,0,0,1-4,1.78,29.15,29.15,0,0,1-5.45,1,78.62,78.62,0,0,1-8.73.43L435.58,83Q433.54,83,429,83.07Zm15.41-10.73c1.31.12,2.67.18,4.1.18a30.13,30.13,0,0,0,6.48-.64,10.36,10.36,0,0,0,5-2.75,12.74,12.74,0,0,0,3.19-5.4,22.74,22.74,0,0,0,1-6.75,15.21,15.21,0,0,0-1.53-7.15,8.7,8.7,0,0,0-4.09-4,17.23,17.23,0,0,0-6.93-1.14c-1.71,0-3.73.08-6.06.22Z" transform="translate(0 0)"/><polygon class="cls-3" points="331.75 26.52 308.31 90.93 375.81 79.03 331.75 26.52"/><g class="cls-4"><rect class="cls-5" x="0.02" height="25.53"/><rect class="cls-5" x="0.02" width="0.5" height="25.53"/><rect class="cls-6" x="0.51" width="0.5" height="25.53"/><rect class="cls-7" x="1.01" width="0.5" height="25.53"/><rect class="cls-8" x="1.51" width="0.5" height="25.53"/><rect class="cls-9" x="2.01" width="0.5" height="25.53"/><rect class="cls-10" x="2.51" width="0.5" height="25.53"/><rect class="cls-11" x="3.01" width="0.5" height="25.53"/><rect class="cls-12" x="3.51" width="0.5" height="25.53"/><rect class="cls-13" x="4.01" width="0.5" height="25.53"/><rect class="cls-14" x="4.51" width="0.5" height="25.53"/><rect class="cls-15" x="5.01" width="0.5" height="25.53"/><rect class="cls-16" x="5.5" width="0.5" height="25.53"/><rect class="cls-17" x="6" width="0.5" height="25.53"/><rect class="cls-18" x="6.5" width="0.5" height="25.53"/><rect class="cls-19" x="7" width="0.5" height="25.53"/><rect class="cls-20" x="7.5" width="0.5" height="25.53"/><rect class="cls-21" x="8" width="0.5" height="25.53"/><rect class="cls-22" x="8.5" width="0.5" height="25.53"/><rect class="cls-23" x="9" width="0.5" height="25.53"/><rect class="cls-24" x="9.5" width="0.5" height="25.53"/><rect class="cls-25" x="9.99" width="0.5" height="25.53"/><rect class="cls-26" x="10.49" width="0.5" height="25.53"/><rect class="cls-27" x="10.99" width="0.5" height="25.53"/><rect class="cls-28" x="11.49" width="0.5" height="25.53"/><rect class="cls-29" x="11.99" width="0.5" height="25.53"/><rect class="cls-30" x="12.49" width="0.5" height="25.53"/><rect class="cls-31" x="12.99" width="0.5" height="25.53"/><rect class="cls-32" x="13.49" width="0.5" height="25.53"/><rect class="cls-33" x="13.99" width="0.5" height="25.53"/><rect class="cls-34" x="14.49" width="0.5" height="25.53"/><rect class="cls-35" x="14.98" width="0.5" height="25.53"/><rect class="cls-36" x="15.48" width="0.5" height="25.53"/><rect class="cls-37" x="15.98" width="0.5" height="25.53"/><rect class="cls-38" x="16.48" width="0.5" height="25.53"/><rect class="cls-39" x="16.98" width="0.5" height="25.53"/><rect class="cls-40" x="17.48" width="0.5" height="25.53"/><rect class="cls-41" x="17.98" width="0.5" height="25.53"/><rect class="cls-42" x="18.48" width="0.5" height="25.53"/><rect class="cls-43" x="18.98" width="0.5" height="25.53"/><rect class="cls-44" x="19.47" width="0.5" height="25.53"/><rect class="cls-45" x="19.97" width="0.5" height="25.53"/><rect class="cls-46" x="20.47" width="0.5" height="25.53"/><rect class="cls-47" x="20.97" width="0.5" height="25.53"/><rect class="cls-48" x="21.47" width="0.5" height="25.53"/><rect class="cls-49" x="21.97" width="0.5" height="25.53"/><rect class="cls-50" x="22.47" width="0.5" height="25.53"/><rect class="cls-51" x="22.97" width="0.5" height="25.53"/><rect class="cls-52" x="23.47" width="0.5" height="25.53"/><rect class="cls-53" x="23.97" width="0.5" height="25.53"/><rect class="cls-54" x="24.46" width="0.5" height="25.53"/><rect class="cls-55" x="24.96" width="0.5" height="25.53"/><rect class="cls-56" x="25.46" width="0.5" height="25.53"/><rect class="cls-57" x="25.96" width="0.5" height="25.53"/><rect class="cls-58" x="26.46" width="0.5" height="25.53"/><rect class="cls-59" x="26.96" width="0.5" height="25.53"/><rect class="cls-60" x="27.46" width="0.5" height="25.53"/><rect class="cls-61" x="27.96" width="0.5" height="25.53"/><rect class="cls-62" x="28.46" width="0.5" height="25.53"/><rect class="cls-63" x="28.95" width="0.5" height="25.53"/><rect class="cls-64" x="29.45" width="0.5" height="25.53"/><rect class="cls-65" x="29.95" width="0.5" height="25.53"/><rect class="cls-66" x="30.45" width="0.5" height="25.53"/><rect class="cls-67" x="30.95" width="0.5" height="25.53"/><rect class="cls-68" x="31.45" width="0.5" height="25.53"/><rect class="cls-69" x="31.95" width="0.5" height="25.53"/><rect class="cls-70" x="32.45" width="0.5" height="25.53"/><rect class="cls-71" x="32.95" width="0.5" height="25.53"/><rect class="cls-72" x="33.45" width="0.5" height="25.53"/><rect class="cls-73" x="33.94" width="0.5" height="25.53"/><rect class="cls-74" x="34.44" width="0.5" height="25.53"/><rect class="cls-75" x="34.94" width="0.5" height="25.53"/><rect class="cls-76" x="35.44" width="0.5" height="25.53"/><rect class="cls-77" x="35.94" width="0.5" height="25.53"/><rect class="cls-78" x="36.44" width="0.5" height="25.53"/><rect class="cls-79" x="36.94" width="0.5" height="25.53"/><rect class="cls-80" x="37.44" width="0.5" height="25.53"/><rect class="cls-81" x="37.94" width="0.5" height="25.53"/><rect class="cls-82" x="38.43" width="0.5" height="25.53"/><rect class="cls-83" x="38.93" width="0.5" height="25.53"/><rect class="cls-84" x="39.43" width="0.5" height="25.53"/><rect class="cls-85" x="39.93" width="0.5" height="25.53"/><rect class="cls-86" x="40.43" width="0.5" height="25.53"/><rect class="cls-87" x="40.93" width="0.5" height="25.53"/><rect class="cls-88" x="41.43" width="0.5" height="25.53"/><rect class="cls-89" x="41.93" width="0.5" height="25.53"/><rect class="cls-90" x="42.43" width="0.5" height="25.53"/><rect class="cls-91" x="42.93" width="0.5" height="25.53"/><rect class="cls-92" x="43.42" width="0.5" height="25.53"/><rect class="cls-93" x="43.92" width="0.5" height="25.53"/><rect class="cls-94" x="44.42" width="0.5" height="25.53"/><rect class="cls-95" x="44.92" width="0.5" height="25.53"/><rect class="cls-96" x="45.42" width="0.5" height="25.53"/><rect class="cls-97" x="45.92" width="0.5" height="25.53"/><rect class="cls-98" x="46.42" width="0.5" height="25.53"/><rect class="cls-99" x="46.92" width="0.5" height="25.53"/><rect class="cls-100" x="47.42" width="0.5" height="25.53"/><rect class="cls-101" x="47.92" width="0.5" height="25.53"/><rect class="cls-102" x="48.41" width="0.5" height="25.53"/><rect class="cls-103" x="48.91" width="0.5" height="25.53"/><rect class="cls-104" x="49.41" width="0.5" height="25.53"/><rect class="cls-105" x="49.91" width="0.5" height="25.53"/><rect class="cls-106" x="50.41" width="0.5" height="25.53"/><rect class="cls-107" x="50.91" width="0.5" height="25.53"/><rect class="cls-108" x="51.41" width="0.5" height="25.53"/><rect class="cls-109" x="51.91" width="0.5" height="25.53"/><rect class="cls-110" x="52.41" width="0.5" height="25.53"/><rect class="cls-111" x="52.9" width="0.5" height="25.53"/><rect class="cls-112" x="53.4" width="0.5" height="25.53"/><rect class="cls-113" x="53.9" width="0.5" height="25.53"/><rect class="cls-114" x="54.4" width="0.5" height="25.53"/><rect class="cls-115" x="54.9" width="0.5" height="25.53"/><rect class="cls-116" x="55.4" width="0.5" height="25.53"/><rect class="cls-117" x="55.9" width="0.5" height="25.53"/><rect class="cls-118" x="56.4" width="0.5" height="25.53"/><rect class="cls-119" x="56.9" width="0.5" height="25.53"/><rect class="cls-120" x="57.4" width="0.5" height="25.53"/><rect class="cls-121" x="57.89" width="0.5" height="25.53"/><rect class="cls-122" x="58.39" width="0.5" height="25.53"/><rect class="cls-123" x="58.89" width="0.5" height="25.53"/><rect class="cls-124" x="59.39" width="0.5" height="25.53"/><rect class="cls-125" x="59.89" width="0.5" height="25.53"/><rect class="cls-126" x="60.39" width="0.5" height="25.53"/><rect class="cls-127" x="60.89" width="0.5" height="25.53"/><rect class="cls-128" x="61.39" width="0.5" height="25.53"/><rect class="cls-129" x="61.89" width="0.5" height="25.53"/><rect class="cls-130" x="62.38" width="0.5" height="25.53"/><rect class="cls-131" x="62.88" width="0.5" height="25.53"/><rect class="cls-132" x="63.38" width="0.5" height="25.53"/><rect class="cls-133" x="63.88" width="0.5" height="25.53"/><rect class="cls-134" x="64.38" width="0.5" height="25.53"/><rect class="cls-135" x="64.88" width="0.5" height="25.53"/><rect class="cls-136" x="65.38" width="0.5" height="25.53"/><rect class="cls-137" x="65.88" width="0.5" height="25.53"/><rect class="cls-138" x="66.38" width="0.5" height="25.53"/><rect class="cls-139" x="66.88" width="0.5" height="25.53"/><rect class="cls-140" x="67.37" width="0.5" height="25.53"/><rect class="cls-141" x="67.87" width="0.5" height="25.53"/><rect class="cls-142" x="68.37" width="0.5" height="25.53"/><rect class="cls-143" x="68.87" width="0.5" height="25.53"/><rect class="cls-144" x="69.37" width="0.5" height="25.53"/><rect class="cls-145" x="69.87" width="0.5" height="25.53"/><rect class="cls-146" x="70.37" width="0.5" height="25.53"/><rect class="cls-147" x="70.87" width="0.5" height="25.53"/><rect class="cls-148" x="71.37" width="0.5" height="25.53"/><rect class="cls-149" x="71.86" width="0.5" height="25.53"/><rect class="cls-150" x="72.36" width="0.5" height="25.53"/><rect class="cls-151" x="72.86" width="0.5" height="25.53"/><rect class="cls-152" x="73.36" width="0.5" height="25.53"/><rect class="cls-153" x="73.86" width="0.5" height="25.53"/><rect class="cls-154" x="74.36" width="0.5" height="25.53"/><rect class="cls-155" x="74.86" width="0.5" height="25.53"/><rect class="cls-156" x="75.36" width="0.5" height="25.53"/><rect class="cls-157" x="75.86" width="0.5" height="25.53"/><rect class="cls-158" x="76.36" width="0.5" height="25.53"/><rect class="cls-159" x="76.85" width="0.5" height="25.53"/><rect class="cls-160" x="77.35" width="0.5" height="25.53"/><rect class="cls-161" x="77.85" width="0.5" height="25.53"/><rect class="cls-162" x="78.35" width="0.5" height="25.53"/><rect class="cls-163" x="78.85" width="0.5" height="25.53"/><rect class="cls-164" x="79.35" width="0.5" height="25.53"/><rect class="cls-165" x="79.85" width="0.5" height="25.53"/><rect class="cls-166" x="80.35" width="0.5" height="25.53"/><rect class="cls-167" x="80.85" width="0.5" height="25.53"/><rect class="cls-168" x="81.34" width="0.5" height="25.53"/><rect class="cls-169" x="81.84" width="0.5" height="25.53"/><rect class="cls-170" x="82.34" width="0.5" height="25.53"/><rect class="cls-171" x="82.84" width="0.5" height="25.53"/><rect class="cls-172" x="83.34" width="0.5" height="25.53"/><rect class="cls-173" x="83.84" width="0.5" height="25.53"/><rect class="cls-174" x="84.34" width="0.5" height="25.53"/><path class="cls-174" d="M84.84,25.53v0Z" transform="translate(0 0)"/></g></g></g></svg>